<svg aria-roledescription="class" role="graphics-document document" viewBox="0 0 550.521484375 656" style="max-width: 550.521484375px;" class="classDiagram" xmlns:xlink="http://www.w3.org/1999/xlink" xmlns="http://www.w3.org/2000/svg" width="100%" id="mermaid-diagram-mermaid-gmfc2dr"><style>#mermaid-diagram-mermaid-gmfc2dr{font-family:"trebuchet ms",verdana,arial,sans-serif;font-size:16px;fill:#ccc;}@keyframes edge-animation-frame{from{stroke-dashoffset:0;}}@keyframes dash{to{stroke-dashoffset:0;}}#mermaid-diagram-mermaid-gmfc2dr .edge-animation-slow{stroke-dasharray:9,5!important;stroke-dashoffset:900;animation:dash 50s linear infinite;stroke-linecap:round;}#mermaid-diagram-mermaid-gmfc2dr .edge-animation-fast{stroke-dasharray:9,5!important;stroke-dashoffset:900;animation:dash 20s linear infinite;stroke-linecap:round;}#mermaid-diagram-mermaid-gmfc2dr .error-icon{fill:#a44141;}#mermaid-diagram-mermaid-gmfc2dr .error-text{fill:#ddd;stroke:#ddd;}#mermaid-diagram-mermaid-gmfc2dr .edge-thickness-normal{stroke-width:1px;}#mermaid-diagram-mermaid-gmfc2dr .edge-thickness-thick{stroke-width:3.5px;}#mermaid-diagram-mermaid-gmfc2dr .edge-pattern-solid{stroke-dasharray:0;}#mermaid-diagram-mermaid-gmfc2dr .edge-thickness-invisible{stroke-width:0;fill:none;}#mermaid-diagram-mermaid-gmfc2dr .edge-pattern-dashed{stroke-dasharray:3;}#mermaid-diagram-mermaid-gmfc2dr .edge-pattern-dotted{stroke-dasharray:2;}#mermaid-diagram-mermaid-gmfc2dr .marker{fill:lightgrey;stroke:lightgrey;}#mermaid-diagram-mermaid-gmfc2dr .marker.cross{stroke:lightgrey;}#mermaid-diagram-mermaid-gmfc2dr svg{font-family:"trebuchet ms",verdana,arial,sans-serif;font-size:16px;}#mermaid-diagram-mermaid-gmfc2dr p{margin:0;}#mermaid-diagram-mermaid-gmfc2dr g.classGroup text{fill:#ccc;stroke:none;font-family:"trebuchet ms",verdana,arial,sans-serif;font-size:10px;}#mermaid-diagram-mermaid-gmfc2dr g.classGroup text .title{font-weight:bolder;}#mermaid-diagram-mermaid-gmfc2dr .nodeLabel,#mermaid-diagram-mermaid-gmfc2dr .edgeLabel{color:#e0dfdf;}#mermaid-diagram-mermaid-gmfc2dr .edgeLabel .label rect{fill:#1f2020;}#mermaid-diagram-mermaid-gmfc2dr .label text{fill:#e0dfdf;}#mermaid-diagram-mermaid-gmfc2dr .labelBkg{background:#1f2020;}#mermaid-diagram-mermaid-gmfc2dr .edgeLabel .label span{background:#1f2020;}#mermaid-diagram-mermaid-gmfc2dr .classTitle{font-weight:bolder;}#mermaid-diagram-mermaid-gmfc2dr .node rect,#mermaid-diagram-mermaid-gmfc2dr .node circle,#mermaid-diagram-mermaid-gmfc2dr .node ellipse,#mermaid-diagram-mermaid-gmfc2dr .node polygon,#mermaid-diagram-mermaid-gmfc2dr .node path{fill:#1f2020;stroke:#ccc;stroke-width:1px;}#mermaid-diagram-mermaid-gmfc2dr .divider{stroke:#ccc;stroke-width:1;}#mermaid-diagram-mermaid-gmfc2dr g.clickable{cursor:pointer;}#mermaid-diagram-mermaid-gmfc2dr g.classGroup rect{fill:#1f2020;stroke:#ccc;}#mermaid-diagram-mermaid-gmfc2dr g.classGroup line{stroke:#ccc;stroke-width:1;}#mermaid-diagram-mermaid-gmfc2dr .classLabel .box{stroke:none;stroke-width:0;fill:#1f2020;opacity:0.5;}#mermaid-diagram-mermaid-gmfc2dr .classLabel .label{fill:#ccc;font-size:10px;}#mermaid-diagram-mermaid-gmfc2dr .relation{stroke:lightgrey;stroke-width:1;fill:none;}#mermaid-diagram-mermaid-gmfc2dr .dashed-line{stroke-dasharray:3;}#mermaid-diagram-mermaid-gmfc2dr .dotted-line{stroke-dasharray:1 2;}#mermaid-diagram-mermaid-gmfc2dr #compositionStart,#mermaid-diagram-mermaid-gmfc2dr .composition{fill:lightgrey!important;stroke:lightgrey!important;stroke-width:1;}#mermaid-diagram-mermaid-gmfc2dr #compositionEnd,#mermaid-diagram-mermaid-gmfc2dr .composition{fill:lightgrey!important;stroke:lightgrey!important;stroke-width:1;}#mermaid-diagram-mermaid-gmfc2dr #dependencyStart,#mermaid-diagram-mermaid-gmfc2dr .dependency{fill:lightgrey!important;stroke:lightgrey!important;stroke-width:1;}#mermaid-diagram-mermaid-gmfc2dr #dependencyStart,#mermaid-diagram-mermaid-gmfc2dr .dependency{fill:lightgrey!important;stroke:lightgrey!important;stroke-width:1;}#mermaid-diagram-mermaid-gmfc2dr #extensionStart,#mermaid-diagram-mermaid-gmfc2dr .extension{fill:transparent!important;stroke:lightgrey!important;stroke-width:1;}#mermaid-diagram-mermaid-gmfc2dr #extensionEnd,#mermaid-diagram-mermaid-gmfc2dr .extension{fill:transparent!important;stroke:lightgrey!important;stroke-width:1;}#mermaid-diagram-mermaid-gmfc2dr #aggregationStart,#mermaid-diagram-mermaid-gmfc2dr .aggregation{fill:transparent!important;stroke:lightgrey!important;stroke-width:1;}#mermaid-diagram-mermaid-gmfc2dr #aggregationEnd,#mermaid-diagram-mermaid-gmfc2dr .aggregation{fill:transparent!important;stroke:lightgrey!important;stroke-width:1;}#mermaid-diagram-mermaid-gmfc2dr #lollipopStart,#mermaid-diagram-mermaid-gmfc2dr .lollipop{fill:#1f2020!important;stroke:lightgrey!important;stroke-width:1;}#mermaid-diagram-mermaid-gmfc2dr #lollipopEnd,#mermaid-diagram-mermaid-gmfc2dr .lollipop{fill:#1f2020!important;stroke:lightgrey!important;stroke-width:1;}#mermaid-diagram-mermaid-gmfc2dr .edgeTerminals{font-size:11px;line-height:initial;}#mermaid-diagram-mermaid-gmfc2dr .classTitleText{text-anchor:middle;font-size:18px;fill:#ccc;}#mermaid-diagram-mermaid-gmfc2dr :root{--mermaid-font-family:"trebuchet ms",verdana,arial,sans-serif;}</style><g><defs><marker orient="auto" markerHeight="240" markerWidth="190" refY="7" refX="18" class="marker aggregation class" id="mermaid-diagram-mermaid-gmfc2dr_class-aggregationStart"><path d="M 18,7 L9,13 L1,7 L9,1 Z"></path></marker></defs><defs><marker orient="auto" markerHeight="28" markerWidth="20" refY="7" refX="1" class="marker aggregation class" id="mermaid-diagram-mermaid-gmfc2dr_class-aggregationEnd"><path d="M 18,7 L9,13 L1,7 L9,1 Z"></path></marker></defs><defs><marker orient="auto" markerHeight="240" markerWidth="190" refY="7" refX="18" class="marker extension class" id="mermaid-diagram-mermaid-gmfc2dr_class-extensionStart"><path d="M 1,7 L18,13 V 1 Z"></path></marker></defs><defs><marker orient="auto" markerHeight="28" markerWidth="20" refY="7" refX="1" class="marker extension class" id="mermaid-diagram-mermaid-gmfc2dr_class-extensionEnd"><path d="M 1,1 V 13 L18,7 Z"></path></marker></defs><defs><marker orient="auto" markerHeight="240" markerWidth="190" refY="7" refX="18" class="marker composition class" id="mermaid-diagram-mermaid-gmfc2dr_class-compositionStart"><path d="M 18,7 L9,13 L1,7 L9,1 Z"></path></marker></defs><defs><marker orient="auto" markerHeight="28" markerWidth="20" refY="7" refX="1" class="marker composition class" id="mermaid-diagram-mermaid-gmfc2dr_class-compositionEnd"><path d="M 18,7 L9,13 L1,7 L9,1 Z"></path></marker></defs><defs><marker orient="auto" markerHeight="240" markerWidth="190" refY="7" refX="6" class="marker dependency class" id="mermaid-diagram-mermaid-gmfc2dr_class-dependencyStart"><path d="M 5,7 L9,13 L1,7 L9,1 Z"></path></marker></defs><defs><marker orient="auto" markerHeight="28" markerWidth="20" refY="7" refX="13" class="marker dependency class" id="mermaid-diagram-mermaid-gmfc2dr_class-dependencyEnd"><path d="M 18,7 L9,13 L14,7 L9,1 Z"></path></marker></defs><defs><marker orient="auto" markerHeight="240" markerWidth="190" refY="7" refX="13" class="marker lollipop class" id="mermaid-diagram-mermaid-gmfc2dr_class-lollipopStart"><circle r="6" cy="7" cx="7" fill="transparent" stroke="black"></circle></marker></defs><defs><marker orient="auto" markerHeight="240" markerWidth="190" refY="7" refX="1" class="marker lollipop class" id="mermaid-diagram-mermaid-gmfc2dr_class-lollipopEnd"><circle r="6" cy="7" cx="7" fill="transparent" stroke="black"></circle></marker></defs><g class="root"><g class="clusters"></g><g class="edgePaths"><path marker-end="url(#mermaid-diagram-mermaid-gmfc2dr_class-dependencyEnd)" style=";" class="edge-thickness-normal edge-pattern-solid relation" id="id_Settings_AvitoParser_1" d="M165.42,207.007L157.619,214.006C149.819,221.004,134.218,235.002,126.418,245.168C118.617,255.333,118.617,261.667,118.617,264.833L118.617,268"></path><path marker-end="url(#mermaid-diagram-mermaid-gmfc2dr_class-dependencyEnd)" style=";" class="edge-thickness-normal edge-pattern-solid relation" id="id_Settings_AIAnalyzer_2" d="M368.279,208.761L375.613,215.467C382.946,222.174,397.613,235.587,404.946,245.46C412.279,255.333,412.279,261.667,412.279,264.833L412.279,268"></path><path marker-end="url(#mermaid-diagram-mermaid-gmfc2dr_class-dependencyEnd)" style=";" class="edge-thickness-normal edge-pattern-solid relation" id="id_AvitoParser_Database_3" d="M118.617,424L118.617,428.167C118.617,432.333,118.617,440.667,118.9,448.004C119.183,455.341,119.75,461.683,120.033,464.853L120.316,468.024"></path><path marker-end="url(#mermaid-diagram-mermaid-gmfc2dr_class-dependencyEnd)" style=";" class="edge-thickness-normal edge-pattern-solid relation" id="id_AIAnalyzer_Database_4" d="M308.605,424L302.845,428.167C297.086,432.333,285.566,440.667,274.282,449.088C262.997,457.51,251.948,466.019,246.423,470.274L240.898,474.529"></path><path marker-end="url(#mermaid-diagram-mermaid-gmfc2dr_class-dependencyEnd)" style=";" class="edge-thickness-normal edge-pattern-solid relation" id="id_AIAnalyzer_TelegramBot_5" d="M419.779,424L420.196,428.167C420.613,432.333,421.446,440.667,421.863,452C422.279,463.333,422.279,477.667,422.279,484.833L422.279,492"></path></g><g class="edgeLabels"><g class="edgeLabel"><g transform="translate(0, -12)" class="label"><foreignObject height="24" width="0"><div class="labelBkg" xmlns="http://www.w3.org/1999/xhtml" style="display: table-cell; white-space: nowrap; line-height: 1.5; max-width: 200px; text-align: center;"><span class="edgeLabel" style=";display: inline-block"></span></div></foreignObject></g></g><g class="edgeLabel"><g transform="translate(0, -12)" class="label"><foreignObject height="24" width="0"><div class="labelBkg" xmlns="http://www.w3.org/1999/xhtml" style="display: table-cell; white-space: nowrap; line-height: 1.5; max-width: 200px; text-align: center;"><span class="edgeLabel" style=";display: inline-block"></span></div></foreignObject></g></g><g class="edgeLabel"><g transform="translate(0, -12)" class="label"><foreignObject height="24" width="0"><div class="labelBkg" xmlns="http://www.w3.org/1999/xhtml" style="display: table-cell; white-space: nowrap; line-height: 1.5; max-width: 200px; text-align: center;"><span class="edgeLabel" style=";display: inline-block"></span></div></foreignObject></g></g><g class="edgeLabel"><g transform="translate(0, -12)" class="label"><foreignObject height="24" width="0"><div class="labelBkg" xmlns="http://www.w3.org/1999/xhtml" style="display: table-cell; white-space: nowrap; line-height: 1.5; max-width: 200px; text-align: center;"><span class="edgeLabel" style=";display: inline-block"></span></div></foreignObject></g></g><g class="edgeLabel"><g transform="translate(0, -12)" class="label"><foreignObject height="24" width="0"><div class="labelBkg" xmlns="http://www.w3.org/1999/xhtml" style="display: table-cell; white-space: nowrap; line-height: 1.5; max-width: 200px; text-align: center;"><span class="edgeLabel" style=";display: inline-block"></span></div></foreignObject></g></g><g transform="translate(142.3769791337319, 207.52901258003172)" class="edgeTerminals"><g transform="translate(0, 0)" class="inner"><foreignObject style="width: 9px; height: 12px;"><div xmlns="http://www.w3.org/1999/xhtml" style="display: inline-block; padding-right: 1px; white-space: nowrap;"><span style=";display: inline-block" class="edgeLabel">1</span></div></foreignObject></g></g><g transform="translate(371.0702056129308, 231.63989058640684)" class="edgeTerminals"><g transform="translate(0, 0)" class="inner"><foreignObject style="width: 9px; height: 12px;"><div xmlns="http://www.w3.org/1999/xhtml" style="display: inline-block; padding-right: 1px; white-space: nowrap;"><span style=";display: inline-block" class="edgeLabel">1</span></div></foreignObject></g></g><g transform="translate(131.94110609325676, 256.5918312590742)" class="edgeTerminals"><g transform="translate(0, 0)" class="inner"></g><foreignObject style="width: 9px; height: 12px;"><div xmlns="http://www.w3.org/1999/xhtml" style="display: inline-block; padding-right: 1px; white-space: nowrap;"><span style=";display: inline-block" class="edgeLabel">1</span></div></foreignObject></g><g transform="translate(418.20013260893705, 249.7297157527271)" class="edgeTerminals"><g transform="translate(0, 0)" class="inner"></g><foreignObject style="width: 9px; height: 12px;"><div xmlns="http://www.w3.org/1999/xhtml" style="display: inline-block; padding-right: 1px; white-space: nowrap;"><span style=";display: inline-block" class="edgeLabel">1</span></div></foreignObject></g></g><g class="nodes"><g transform="translate(266.849609375, 116)" id="classId-Settings-10" class="node default"><g class="basic label-container"><path style="" fill="#1f2020" stroke-width="0" stroke="none" d="M-101.4296875 -108 L101.4296875 -108 L101.4296875 108 L-101.4296875 108"></path><path style="" fill="none" stroke-width="1.3" stroke="#ccc" d="M-101.4296875 -108 C-37.78381380384696 -108, 25.86205989230608 -108, 101.4296875 -108 M-101.4296875 -108 C-59.78536293250179 -108, -18.14103836500358 -108, 101.4296875 -108 M101.4296875 -108 C101.4296875 -26.318407465254623, 101.4296875 55.363185069490754, 101.4296875 108 M101.4296875 -108 C101.4296875 -57.14338205310096, 101.4296875 -6.286764106201915, 101.4296875 108 M101.4296875 108 C51.78966799170839 108, 2.149648483416783 108, -101.4296875 108 M101.4296875 108 C50.08243382870552 108, -1.2648198425889632 108, -101.4296875 108 M-101.4296875 108 C-101.4296875 24.724857922071223, -101.4296875 -58.550284155857554, -101.4296875 -108 M-101.4296875 108 C-101.4296875 37.30080426320974, -101.4296875 -33.39839147358052, -101.4296875 -108"></path></g><g transform="translate(0, -84)" class="annotation-group text"></g><g transform="translate(-29.203125, -84)" class="label-group text"><g transform="translate(0,-12)" style="font-weight: bolder" class="label"><foreignObject height="24" width="58.40625"><div xmlns="http://www.w3.org/1999/xhtml" style="display: table-cell; white-space: nowrap; line-height: 1.5; max-width: 112px; text-align: center;"><span style="" class="nodeLabel markdown-node-label"><p>Settings</p></span></div></foreignObject></g></g><g transform="translate(-89.4296875, -36)" class="members-group text"><g transform="translate(0,-12)" style="" class="label"><foreignObject height="24" width="80.109375"><div xmlns="http://www.w3.org/1999/xhtml" style="display: table-cell; white-space: nowrap; line-height: 1.5; max-width: 142px; text-align: center;"><span style="" class="nodeLabel markdown-node-label"><p>+bot_token</p></span></div></foreignObject></g><g transform="translate(0,12)" style="" class="label"><foreignObject height="24" width="149.65625"><div xmlns="http://www.w3.org/1999/xhtml" style="display: table-cell; white-space: nowrap; line-height: 1.5; max-width: 214px; text-align: center;"><span style="" class="nodeLabel markdown-node-label"><p>+openrouter_api_key</p></span></div></foreignObject></g><g transform="translate(0,36)" style="" class="label"><foreignObject height="24" width="114.15625"><div xmlns="http://www.w3.org/1999/xhtml" style="display: table-cell; white-space: nowrap; line-height: 1.5; max-width: 180px; text-align: center;"><span style="" class="nodeLabel markdown-node-label"><p>+search_queries</p></span></div></foreignObject></g><g transform="translate(0,60)" style="font-style:italic;" class="label"><foreignObject height="24" width="71.25"><div xmlns="http://www.w3.org/1999/xhtml" style="display: table-cell; white-space: nowrap; line-height: 1.5; max-width: 137px; text-align: center;"><span style="" class="nodeLabel markdown-node-label"><p>+TARGET_</p></span></div></foreignObject></g><g transform="translate(0,84)" style="" class="label"><foreignObject height="24" width="112.234375"><div xmlns="http://www.w3.org/1999/xhtml" style="display: table-cell; white-space: nowrap; line-height: 1.5; max-width: 174px; text-align: center;"><span style="" class="nodeLabel markdown-node-label"><p>+check_interval</p></span></div></foreignObject></g></g><g transform="translate(-89.4296875, 108)" class="methods-group text"></g><g style="" class="divider"><path style="" fill="none" stroke-width="1.3" stroke="#ccc" d="M-101.4296875 -60 C-28.319416248241893 -60, 44.790855003516214 -60, 101.4296875 -60 M-101.4296875 -60 C-50.80066148186296 -60, -0.1716354637259201 -60, 101.4296875 -60"></path></g><g style="" class="divider"><path style="" fill="none" stroke-width="1.3" stroke="#ccc" d="M-101.4296875 84 C-33.65962772971497 84, 34.11043204057006 84, 101.4296875 84 M-101.4296875 84 C-27.1062202737954 84, 47.2172469524092 84, 101.4296875 84"></path></g></g><g transform="translate(118.6171875, 349)" id="classId-AvitoParser-11" class="node default"><g class="basic label-container"><path style="" fill="#1f2020" stroke-width="0" stroke="none" d="M-110.6171875 -75 L110.6171875 -75 L110.6171875 75 L-110.6171875 75"></path><path style="" fill="none" stroke-width="1.3" stroke="#ccc" d="M-110.6171875 -75 C-30.96186799076615 -75, 48.6934515184677 -75, 110.6171875 -75 M-110.6171875 -75 C-53.73606736947325 -75, 3.145052761053506 -75, 110.6171875 -75 M110.6171875 -75 C110.6171875 -25.697232542680496, 110.6171875 23.60553491463901, 110.6171875 75 M110.6171875 -75 C110.6171875 -33.71751506141679, 110.6171875 7.564969877166419, 110.6171875 75 M110.6171875 75 C47.20374162190769 75, -16.209704256184622 75, -110.6171875 75 M110.6171875 75 C36.822134558590136 75, -36.97291838281973 75, -110.6171875 75 M-110.6171875 75 C-110.6171875 33.567326307796215, -110.6171875 -7.8653473844075705, -110.6171875 -75 M-110.6171875 75 C-110.6171875 36.036411742000645, -110.6171875 -2.9271765159987098, -110.6171875 -75"></path></g><g transform="translate(0, -51)" class="annotation-group text"></g><g transform="translate(-42.390625, -51)" class="label-group text"><g transform="translate(0,-12)" style="font-weight: bolder" class="label"><foreignObject height="24" width="84.78125"><div xmlns="http://www.w3.org/1999/xhtml" style="display: table-cell; white-space: nowrap; line-height: 1.5; max-width: 135px; text-align: center;"><span style="" class="nodeLabel markdown-node-label"><p>AvitoParser</p></span></div></foreignObject></g></g><g transform="translate(-98.6171875, -3)" class="members-group text"></g><g transform="translate(-98.6171875, 27)" class="methods-group text"><g transform="translate(0,-12)" style="" class="label"><foreignObject height="24" width="127.265625"><div xmlns="http://www.w3.org/1999/xhtml" style="display: table-cell; white-space: nowrap; line-height: 1.5; max-width: 192px; text-align: center;"><span style="" class="nodeLabel markdown-node-label"><p>+scrape_page(url)</p></span></div></foreignObject></g><g transform="translate(0,12)" style="" class="label"><foreignObject height="24" width="154.84375"><div xmlns="http://www.w3.org/1999/xhtml" style="display: table-cell; white-space: nowrap; line-height: 1.5; max-width: 216px; text-align: center;"><span style="" class="nodeLabel markdown-node-label"><p>+extract_listing(html)</p></span></div></foreignObject></g></g><g style="" class="divider"><path style="" fill="none" stroke-width="1.3" stroke="#ccc" d="M-110.6171875 -27 C-52.43922818098829 -27, 5.738731138023425 -27, 110.6171875 -27 M-110.6171875 -27 C-58.18448649346021 -27, -5.751785486920426 -27, 110.6171875 -27"></path></g><g style="" class="divider"><path style="" fill="none" stroke-width="1.3" stroke="#ccc" d="M-110.6171875 -3 C-22.89754518478631 -3, 64.82209713042738 -3, 110.6171875 -3 M-110.6171875 -3 C-53.51496897367619 -3, 3.58724955264762 -3, 110.6171875 -3"></path></g></g><g transform="translate(412.279296875, 349)" id="classId-AIAnalyzer-12" class="node default"><g class="basic label-container"><path style="" fill="#1f2020" stroke-width="0" stroke="none" d="M-130.2421875 -75 L130.2421875 -75 L130.2421875 75 L-130.2421875 75"></path><path style="" fill="none" stroke-width="1.3" stroke="#ccc" d="M-130.2421875 -75 C-35.5005893040028 -75, 59.2410088919944 -75, 130.2421875 -75 M-130.2421875 -75 C-74.07733532577751 -75, -17.912483151555037 -75, 130.2421875 -75 M130.2421875 -75 C130.2421875 -41.04114688913121, 130.2421875 -7.082293778262425, 130.2421875 75 M130.2421875 -75 C130.2421875 -29.084648701574388, 130.2421875 16.830702596851225, 130.2421875 75 M130.2421875 75 C74.80109444824707 75, 19.36000139649414 75, -130.2421875 75 M130.2421875 75 C62.34412021107276 75, -5.553947077854474 75, -130.2421875 75 M-130.2421875 75 C-130.2421875 42.735554045187975, -130.2421875 10.47110809037595, -130.2421875 -75 M-130.2421875 75 C-130.2421875 23.58369191934205, -130.2421875 -27.832616161315897, -130.2421875 -75"></path></g><g transform="translate(0, -51)" class="annotation-group text"></g><g transform="translate(-39.71875, -51)" class="label-group text"><g transform="translate(0,-12)" style="font-weight: bolder" class="label"><foreignObject height="24" width="79.4375"><div xmlns="http://www.w3.org/1999/xhtml" style="display: table-cell; white-space: nowrap; line-height: 1.5; max-width: 130px; text-align: center;"><span style="" class="nodeLabel markdown-node-label"><p>AIAnalyzer</p></span></div></foreignObject></g></g><g transform="translate(-118.2421875, -3)" class="members-group text"></g><g transform="translate(-118.2421875, 27)" class="methods-group text"><g transform="translate(0,-12)" style="" class="label"><foreignObject height="24" width="196.765625"><div xmlns="http://www.w3.org/1999/xhtml" style="display: table-cell; white-space: nowrap; line-height: 1.5; max-width: 255px; text-align: center;"><span style="" class="nodeLabel markdown-node-label"><p>+analyze(listing: dict) : dict</p></span></div></foreignObject></g><g transform="translate(0,12)" style="" class="label"><foreignObject height="24" width="128.0625"><div xmlns="http://www.w3.org/1999/xhtml" style="display: table-cell; white-space: nowrap; line-height: 1.5; max-width: 190px; text-align: center;"><span style="" class="nodeLabel markdown-node-label"><p>-build_user_text()</p></span></div></foreignObject></g></g><g style="" class="divider"><path style="" fill="none" stroke-width="1.3" stroke="#ccc" d="M-130.2421875 -27 C-57.62644969342054 -27, 14.98928811315892 -27, 130.2421875 -27 M-130.2421875 -27 C-27.27319415593209 -27, 75.69579918813582 -27, 130.2421875 -27"></path></g><g style="" class="divider"><path style="" fill="none" stroke-width="1.3" stroke="#ccc" d="M-130.2421875 -3 C-61.00953665242824 -3, 8.223114195143523 -3, 130.2421875 -3 M-130.2421875 -3 C-30.813127334720576 -3, 68.61593283055885 -3, 130.2421875 -3"></path></g></g><g transform="translate(128.6171875, 561)" id="classId-Database-13" class="node default"><g class="basic label-container"><path style="" fill="#1f2020" stroke-width="0" stroke="none" d="M-107.52734375 -87 L107.52734375 -87 L107.52734375 87 L-107.52734375 87"></path><path style="" fill="none" stroke-width="1.3" stroke="#ccc" d="M-107.52734375 -87 C-43.12444684249678 -87, 21.27845006500644 -87, 107.52734375 -87 M-107.52734375 -87 C-24.34908104635646 -87, 58.82918165728708 -87, 107.52734375 -87 M107.52734375 -87 C107.52734375 -43.40868889634182, 107.52734375 0.18262220731635637, 107.52734375 87 M107.52734375 -87 C107.52734375 -23.377294631160268, 107.52734375 40.245410737679464, 107.52734375 87 M107.52734375 87 C52.01393329852862 87, -3.4994771529427595 87, -107.52734375 87 M107.52734375 87 C24.648891373892425 87, -58.22956100221515 87, -107.52734375 87 M-107.52734375 87 C-107.52734375 28.484400178210052, -107.52734375 -30.031199643579896, -107.52734375 -87 M-107.52734375 87 C-107.52734375 30.272908663324607, -107.52734375 -26.454182673350786, -107.52734375 -87"></path></g><g transform="translate(0, -63)" class="annotation-group text"></g><g transform="translate(-33.3984375, -63)" class="label-group text"><g transform="translate(0,-12)" style="font-weight: bolder" class="label"><foreignObject height="24" width="66.796875"><div xmlns="http://www.w3.org/1999/xhtml" style="display: table-cell; white-space: nowrap; line-height: 1.5; max-width: 120px; text-align: center;"><span style="" class="nodeLabel markdown-node-label"><p>Database</p></span></div></foreignObject></g></g><g transform="translate(-95.52734375, -15)" class="members-group text"></g><g transform="translate(-95.52734375, 15)" class="methods-group text"><g transform="translate(0,-12)" style="" class="label"><foreignObject height="24" width="109.9375"><div xmlns="http://www.w3.org/1999/xhtml" style="display: table-cell; white-space: nowrap; line-height: 1.5; max-width: 174px; text-align: center;"><span style="" class="nodeLabel markdown-node-label"><p>+is_seen(ad_id)</p></span></div></foreignObject></g><g transform="translate(0,12)" style="" class="label"><foreignObject height="24" width="157.65625"><div xmlns="http://www.w3.org/1999/xhtml" style="display: table-cell; white-space: nowrap; line-height: 1.5; max-width: 224px; text-align: center;"><span style="" class="nodeLabel markdown-node-label"><p>+mark_as_seen(ad_id)</p></span></div></foreignObject></g><g transform="translate(0,36)" style="" class="label"><foreignObject height="24" width="87.3125"><div xmlns="http://www.w3.org/1999/xhtml" style="display: table-cell; white-space: nowrap; line-height: 1.5; max-width: 148px; text-align: center;"><span style="" class="nodeLabel markdown-node-label"><p>+async init()</p></span></div></foreignObject></g></g><g style="" class="divider"><path style="" fill="none" stroke-width="1.3" stroke="#ccc" d="M-107.52734375 -39 C-50.691538826495744 -39, 6.1442660970085115 -39, 107.52734375 -39 M-107.52734375 -39 C-52.821945463431234 -39, 1.8834528231375316 -39, 107.52734375 -39"></path></g><g style="" class="divider"><path style="" fill="none" stroke-width="1.3" stroke="#ccc" d="M-107.52734375 -15 C-53.146812152672815 -15, 1.2337194446543691 -15, 107.52734375 -15 M-107.52734375 -15 C-35.857960941659556 -15, 35.81142186668089 -15, 107.52734375 -15"></path></g></g><g transform="translate(422.279296875, 561)" id="classId-TelegramBot-14" class="node default"><g class="basic label-container"><path style="" fill="#1f2020" stroke-width="0" stroke="none" d="M-118.9375 -63 L118.9375 -63 L118.9375 63 L-118.9375 63"></path><path style="" fill="none" stroke-width="1.3" stroke="#ccc" d="M-118.9375 -63 C-33.75620613476566 -63, 51.425087730468675 -63, 118.9375 -63 M-118.9375 -63 C-57.05174473519348 -63, 4.834010529613039 -63, 118.9375 -63 M118.9375 -63 C118.9375 -23.55808000272664, 118.9375 15.883839994546719, 118.9375 63 M118.9375 -63 C118.9375 -31.05238392419576, 118.9375 0.8952321516084822, 118.9375 63 M118.9375 63 C35.50481930031448 63, -47.92786139937104 63, -118.9375 63 M118.9375 63 C32.831052167377706 63, -53.27539566524459 63, -118.9375 63 M-118.9375 63 C-118.9375 17.02589450427837, -118.9375 -28.94821099144326, -118.9375 -63 M-118.9375 63 C-118.9375 14.928436819554278, -118.9375 -33.14312636089144, -118.9375 -63"></path></g><g transform="translate(0, -39)" class="annotation-group text"></g><g transform="translate(-45.796875, -39)" class="label-group text"><g transform="translate(0,-12)" style="font-weight: bolder" class="label"><foreignObject height="24" width="91.59375"><div xmlns="http://www.w3.org/1999/xhtml" style="display: table-cell; white-space: nowrap; line-height: 1.5; max-width: 144px; text-align: center;"><span style="" class="nodeLabel markdown-node-label"><p>TelegramBot</p></span></div></foreignObject></g></g><g transform="translate(-106.9375, 9)" class="members-group text"></g><g transform="translate(-106.9375, 39)" class="methods-group text"><g transform="translate(0,-12)" style="" class="label"><foreignObject height="24" width="168.078125"><div xmlns="http://www.w3.org/1999/xhtml" style="display: table-cell; white-space: nowrap; line-height: 1.5; max-width: 232px; text-align: center;"><span style="" class="nodeLabel markdown-node-label"><p>+send_ad_notification()</p></span></div></foreignObject></g></g><g style="" class="divider"><path style="" fill="none" stroke-width="1.3" stroke="#ccc" d="M-118.9375 -15 C-58.509015500655416 -15, 1.9194689986891689 -15, 118.9375 -15 M-118.9375 -15 C-41.4327977443301 -15, 36.071904511339795 -15, 118.9375 -15"></path></g><g style="" class="divider"><path style="" fill="none" stroke-width="1.3" stroke="#ccc" d="M-118.9375 9 C-27.14667650646645 9, 64.6441469870671 9, 118.9375 9 M-118.9375 9 C-58.10469357385733 9, 2.728112852285335 9, 118.9375 9"></path></g></g></g></g></g></svg>